<?xml version="1.0" encoding="utf-8"?>
<svg width="31" height="31" viewBox="0 0 31 31" fill="none" xmlns="http://www.w3.org/2000/svg">
<path d="M26.8035 11.4017C26.8037 11.0075 26.7253 10.6174 26.5731 10.2551C26.4209 9.89281 26.198 9.56599 25.918 9.29454C25.638 9.0231 25.3069 8.81271 24.9447 8.67621C24.5825 8.53972 24.1968 8.47997 23.8113 8.50061L18.8485 8.76243L8.72635 9.30084C8.70144 9.30324 8.67659 9.29573 8.65697 9.27988C8.63734 9.26404 8.62446 9.24108 8.621 9.21578C8.61753 9.19048 8.62376 9.1648 8.63837 9.14406C8.65299 9.12333 8.67487 9.10916 8.69946 9.10448L19.7893 6.35962C19.8204 6.35141 19.853 6.3507 19.8844 6.35756C19.9158 6.36443 19.9452 6.37867 19.9703 6.39916C19.9954 6.41965 20.0155 6.44583 20.0289 6.47562C20.0424 6.5054 20.0488 6.53798 20.0478 6.57077V7.38789C20.0477 7.4148 20.0531 7.44145 20.0637 7.46609C20.0743 7.49073 20.0898 7.51283 20.1093 7.53094C20.1288 7.54905 20.1518 7.56278 20.1769 7.57124C20.2019 7.5797 20.2284 7.58269 20.2546 7.58003L21.6132 7.50613C21.6976 7.50175 21.7771 7.46367 21.8343 7.40008C21.8915 7.3365 21.922 7.25251 21.9192 7.16619V5.18356C21.9188 5.02827 21.8841 4.87506 21.8177 4.73536C21.7513 4.59565 21.6549 4.47304 21.5357 4.37665C21.4164 4.28026 21.2774 4.21257 21.129 4.17864C20.9806 4.1447 20.8266 4.14538 20.6785 4.18063L4.92978 8.08466L4.88015 7.93264L13.3749 3.8977C13.3956 3.8882 13.4184 3.88415 13.441 3.8859C13.4637 3.88766 13.4856 3.89517 13.5047 3.90776C13.5238 3.92034 13.5395 3.93761 13.5504 3.95797C13.5613 3.97834 13.5671 4.00117 13.5672 4.02438V4.32421C13.5664 4.35631 13.5728 4.38818 13.5859 4.41738C13.599 4.44657 13.6185 4.47233 13.6428 4.49269C13.6671 4.51305 13.6957 4.52748 13.7263 4.53487C13.7569 4.54226 13.7888 4.54243 13.8195 4.53535L15.0374 4.22286C15.1491 4.1953 15.2485 4.13009 15.3194 4.03775C15.3903 3.94541 15.4287 3.83135 15.4282 3.714V2.44715C15.4292 2.27217 15.3867 2.0998 15.3046 1.94623C15.2224 1.79266 15.1034 1.66292 14.9587 1.5692C14.814 1.47547 14.6483 1.42084 14.4773 1.41043C14.3062 1.40002 14.1353 1.43417 13.9807 1.50967L3.08526 6.68901C3.0433 6.70949 2.99685 6.71851 2.95046 6.71517C2.90406 6.71184 2.85931 6.69628 2.82057 6.67C2.78473 6.64606 2.75496 6.61378 2.73371 6.57581C2.71246 6.53784 2.70032 6.49527 2.6983 6.45158C2.69629 6.4079 2.70444 6.36435 2.7221 6.32451C2.73976 6.28466 2.76642 6.24966 2.79989 6.22238L6.75569 2.96867C6.76901 2.95745 6.78518 2.95033 6.80231 2.94815C6.81944 2.94596 6.83683 2.9488 6.85244 2.95633C6.86805 2.96385 6.88124 2.97576 6.89047 2.99066C6.89971 3.00556 6.9046 3.02283 6.90457 3.04046V3.39307C6.90481 3.41316 6.90998 3.43287 6.9196 3.4504C6.92921 3.46793 6.94298 3.48273 6.95963 3.49344C6.97628 3.50414 6.9953 3.51042 7.01494 3.5117C7.03458 3.51298 7.05422 3.50921 7.07207 3.50075L8.55265 2.79342C8.6153 2.76168 8.66793 2.71257 8.7045 2.6517C8.74108 2.59083 8.76011 2.52067 8.75943 2.44926V1.03671C8.76127 0.840115 8.70809 0.647071 8.60616 0.480276C8.50422 0.313482 8.35777 0.179871 8.18401 0.095155C8.01026 0.0104385 7.81643 -0.0218621 7.62531 0.00205121C7.43419 0.0259645 7.25373 0.105097 7.10515 0.230146L0.454954 5.70086C0.311836 5.8187 0.196602 5.968 0.117836 6.13762C0.0390691 6.30725 -0.00120028 6.49284 2.72434e-05 6.68056V24.1083C0.000379915 24.4593 0.0726853 24.8063 0.212291 25.127C0.351898 25.4478 0.555713 25.7351 0.810624 25.9706L5.63078 30.4278C6.0548 30.8184 6.61337 31.0212 7.18373 30.9916L24.1049 30.1005C24.8329 30.0616 25.5186 29.7391 26.0207 29.1993C26.5227 28.6596 26.8029 27.9438 26.8035 27.1994V11.4017ZM7.56008 27.1129V13.0339C7.56 12.5563 7.73957 12.097 8.06168 11.7509C8.38378 11.4047 8.82382 11.198 9.29087 11.1737L15.786 10.8316C16.9658 10.7695 18.1457 10.9531 19.2538 11.3713C20.3619 11.7896 21.3751 12.4337 22.2317 13.2645C23.0883 14.0953 23.7703 15.0953 24.2363 16.2038C24.7023 17.3123 24.9426 18.506 24.9424 19.7123C24.9427 21.9913 24.086 24.1834 22.5491 25.836C21.0121 27.4886 18.9124 28.4755 16.6834 28.593L9.47698 28.973C9.22993 28.9859 8.98289 28.9474 8.7509 28.8597C8.5189 28.772 8.3068 28.6371 8.12749 28.4631C7.94818 28.2891 7.80541 28.0796 7.70786 27.8475C7.61032 27.6154 7.56004 27.3654 7.56008 27.1129Z" fill="#212121"/>
<path d="M20.8396 19.7123C20.8401 20.9178 20.3868 22.0775 19.5736 22.9514C18.7604 23.8254 17.6494 24.3469 16.4702 24.4081L12.4669 24.6192C12.3634 24.6247 12.26 24.6086 12.1628 24.5719C12.0657 24.5352 11.9768 24.4786 11.9018 24.4057C11.8267 24.3328 11.7669 24.2451 11.7262 24.1478C11.6854 24.0506 11.6644 23.9459 11.6646 23.8401V15.9856C11.6632 15.785 11.7377 15.5916 11.8726 15.4457C12.0074 15.2998 12.1921 15.2126 12.3883 15.2023L15.9967 15.0122C16.6207 14.979 17.2448 15.0758 17.831 15.2968C18.4172 15.5178 18.9531 15.8584 19.4062 16.2977C19.8593 16.7371 20.2201 17.266 20.4665 17.8523C20.713 18.4386 20.8399 19.07 20.8396 19.7081V19.7123Z" fill="#212121"/>
</svg>
